<svg id="svgAvatar" fill="currentColor" class="avatar" xmlns="http://www.w3.org/2000/svg" viewBox="0 0 20 20" height="28" width="28">
  <path fill="currentColor" d="M16.39 11.215h-2.367c1.196-1.48 1.965-3.465 1.965-5.246 0-3.29-2.68-5.969-5.972-5.969a5.978 5.978 0 0 0-5.97 5.969c0 1.781.766 3.765 1.966 5.246H3.609c-1.09 0-2.093.547-2.687 1.465-.414.648-.504 1.78-.258 3.367l.313 2.035C1.14 19.156 2.12 20 3.21 20h13.578c1.09 0 2.07-.844 2.234-1.918l.313-2.035c.246-1.586.156-2.719-.258-3.367a3.188 3.188 0 0 0-2.687-1.465Zm1.844 6.746c-.101.672-.765 1.242-1.445 1.242H3.211c-.68 0-1.344-.57-1.445-1.242l-.313-2.035c-.207-1.348-.16-2.348.14-2.813a2.398 2.398 0 0 1 2.016-1.101h3.145c.95.883 2.074 1.445 3.262 1.445 1.191 0 2.316-.562 3.261-1.445h3.114c.816 0 1.57.414 2.015 1.101.301.465.348 1.465.14 2.813ZM15.23 5.969c0 1.797-.902 3.879-2.222 5.246a7.14 7.14 0 0 1-.422.398c-.168.145-.34.282-.52.399-.636.43-1.332.687-2.05.687-.715 0-1.41-.258-2.047-.687a4.962 4.962 0 0 1-.52-.399 6.714 6.714 0 0 1-.422-.398c-1.32-1.367-2.222-3.45-2.222-5.246a5.22 5.22 0 0 1 5.21-5.211 5.22 5.22 0 0 1 5.215 5.21Zm0 0"/>
</svg>