<svg xmlns="http://www.w3.org/2000/svg" xml:space="preserve" baseProfile="tiny" overflow="visible" height="40" width="200">
  <path fill="#333232" d="m303.6 646.4-11.8-31.3v31.3h-9.4v-47.9h11.9l12.8 33.8 12.7-33.8h11.7v48H322V615l-11.6 31.3h-6.8zM365.5 598.5l18.3 48h-10.1l-4.3-11.6h-18l-4.1 11.5h-10l18.3-47.9h9.9zm-11 28h11.8l-5.9-16-5.8 16zM399.6 620l18-21.5h12L411.5 620l19 26.4h-12.1l-14.2-19.6-4.5 5.4v14.2h-10v-47.9h10v21.6zM468.4 598.5v8.8h-22.7v10.4h20.6v8.5h-20.6v11.4h22.7v8.8h-32.5v-47.9h32.5z"/>
  <g fill="#702A8C">
    <path d="M473.8 598.5h39.6v5.5h-16.7v42.4h-6.2V604h-16.7v-5.5zM560.8 598.5v48h-6.2v-22h-27v22h-6.2v-48h6.2V619h27v-20.5h6.2zM578.4 646.4h-6.2v-47.9h6.2v48zM627 646.4h-4.6l-26.7-38v38h-6v-47.9h5.9L621 635v-36.5h5.8v48zM660 628.1v-5.3h17.3v3.3c0 12.8-8 21-19.8 21-12.5 0-22-9.6-22-24.6 0-15 9.6-24.7 21.9-24.7 10.2 0 16.9 5.9 18.8 14.8h-6.1c-2-5.6-6-9.2-12.7-9.2-9.3 0-15.7 7.6-15.7 19 0 11.6 6.3 19.3 15.8 19.3 8.4 0 13.3-5.3 14-13.6H660zM688.9 634c1.8 5.3 6.3 8 12.1 8 6.3 0 10.6-3.1 10.6-8.4 0-3.8-2-6.2-7.6-7.6l-8.6-2.3c-6.6-1.7-11.4-5-11.4-12.3 0-8.1 6.7-13.6 15.7-13.6 10 0 15.8 5.1 17.6 12.7H711c-1.5-4.3-5-7.4-11.4-7.4-5.7 0-9.9 3-9.9 7.8 0 4.1 2.7 6 7.6 7.4l8.2 2c7.7 2 12 6.2 12 13 0 8.6-7 13.9-16.6 13.9s-16.6-4.8-18.4-13.2h6.3z"/>
  </g>
  <g fill="#333232">
    <path d="m343.9 668 8.4 21.7h-2.8l-2.5-6.5h-9l-2.4 6.5h-2.8l8.4-21.7h2.7zm-5 12.7h7.1l-3.5-9.2-3.5 9.2zM381 667.7a8 8 0 0 1 8.4 6.7h-2.8c-.9-2.5-2.7-4.2-5.7-4.2-4 0-6.9 3.5-6.9 8.7 0 5 2.8 8.6 7 8.6 3 0 4.7-1.7 5.6-4.2h2.8c-1 4-4 6.7-8.4 6.7-5.5 0-9.7-4.4-9.7-11.1 0-6.8 4.2-11.2 9.6-11.2zM419.2 667.7a8 8 0 0 1 8.4 6.7H425c-1-2.5-2.7-4.2-5.7-4.2-4.1 0-7 3.5-7 8.7 0 5 2.8 8.6 7 8.6 3 0 4.8-1.7 5.7-4.2h2.7c-.9 4-3.9 6.7-8.4 6.7-5.5 0-9.7-4.4-9.7-11.1 0-6.8 4.2-11.2 9.7-11.2zM462.8 668v2.5h-11v6.9h10v2.4h-10v7.4h11v2.5H449V668h13.8zM485.9 684c.8 2.4 2.8 3.6 5.5 3.6 2.8 0 4.7-1.3 4.7-3.7 0-1.7-1-2.8-3.4-3.4l-3.9-1c-3-.8-5.2-2.4-5.2-5.6 0-3.7 3-6.2 7.2-6.2 4.4 0 7 2.3 7.9 5.7h-2.8c-.7-1.9-2.3-3.3-5.1-3.3-2.6 0-4.5 1.3-4.5 3.6 0 1.8 1.2 2.7 3.4 3.3l3.7 1c3.5.8 5.4 2.7 5.4 5.7 0 4-3.2 6.3-7.5 6.3s-7.5-2.2-8.3-6h2.9zM521.5 684c.8 2.4 2.8 3.6 5.5 3.6 2.8 0 4.8-1.3 4.8-3.7 0-1.7-1-2.8-3.5-3.4l-3.9-1c-3-.8-5.2-2.4-5.2-5.6 0-3.7 3-6.2 7.2-6.2 4.5 0 7 2.3 7.9 5.7h-2.8c-.7-1.9-2.3-3.3-5.1-3.3-2.6 0-4.5 1.3-4.5 3.6 0 1.8 1.2 2.7 3.4 3.3l3.7 1c3.5.8 5.4 2.7 5.4 5.7 0 4-3.1 6.3-7.4 6.3s-7.5-2.2-8.4-6h2.9zM558.7 689.7H556V668h2.7v21.6zM596.5 683.6c0 4-2.7 6.1-7.2 6.1h-7.8v-21.6h7.1c4.5 0 7.2 2 7.2 5.7 0 2.6-1.5 4.2-3.2 4.7 2.3.6 4 2.7 4 5.1zm-7.9-6.1c3 0 4.5-1.2 4.5-3.6 0-2.3-1.6-3.4-4.5-3.4h-4.4v7h4.4zm-4.4 9.8h5.1c3 0 4.5-1.5 4.5-3.8s-1.5-3.7-4.5-3.7h-5v7.5zM618 668h2.9v19.2h11v2.5H618V668zM667.2 668v2.5h-11v6.9h10v2.4h-10v7.4h11v2.5h-13.8V668h13.8z"/>
  </g>
  <g>
    <path fill="#702A8C" d="M238 608a5.3 5.3 0 0 0-6-.5l-1.8-1-1.6-1-19.9-11.4-9.5 5.5-.8.4a5.3 5.3 0 0 0-7.7 4.5l-2.3 1.3-1.3.8-19.9 11.5v12.1a5.3 5.3 0 0 0-2.4 4.2v.3c0 1.9 1 3.5 2.4 4.5V666l9.6 5.5.7.5a5.3 5.3 0 0 0 5.3 5.3c1 0 1.9-.3 2.7-.7l1.8 1 1.6 1 19.8 11.4 9.6-5.5.7-.4a5.3 5.3 0 0 0 7.8-4.5l2.3-1.3 1.3-.8 19.9-11.5v-11.9a5.3 5.3 0 0 0 0-8.9v-27.1l-9.6-5.5-.7-.5c0-1.6-.8-3.1-2-4zm-5.6 1.5c.4-.4 1-.7 1.6-.8l.7-.1c.9 0 1.7.3 2.3.9a3.5 3.5 0 0 1 .5 4.7c-.6.8-1.6 1.4-2.8 1.4-1.2 0-2.2-.6-2.9-1.4l-.1-.3c-.4-.5-.5-1.1-.5-1.8 0-1 .4-2 1.2-2.6zm-39.6-6.2a3.5 3.5 0 1 1 3.2 5h-.4a3.5 3.5 0 0 1-2.8-5zm-22.7 35-.9-.2c-.8-.2-1.5-.7-2-1.4-.4-.5-.7-1.3-.7-2v-.3c.1-.7.3-1.3.7-1.8a3.5 3.5 0 0 1 6.2 3.2l-.5 1c-.6.8-1.7 1.4-2.8 1.4zm15 36.4c-.4.3-1 .6-1.6.7l-.7.1c-.9 0-1.7-.3-2.3-.9a3.5 3.5 0 0 1-1.2-2.6c0-.8.2-1.5.6-2 .7-1 1.7-1.5 2.9-1.5s2.2.6 2.9 1.4l.1.3a3.6 3.6 0 0 1-.7 4.5zm39.6 6.1a3.5 3.5 0 0 1-6.4 0 3.4 3.4 0 0 1 0-2.9 3.5 3.5 0 0 1 3.8-2h.3l.3.1.3.1.2.2.2.1.3.2.2.1.2.2.1.2.2.2v.1l.2.2v.2l.2.4v.2l.1.3v.6c.1.6 0 1-.2 1.5zm22.7-34.6a3.5 3.5 0 0 1 2.9 1.4 3.5 3.5 0 0 1-2.9 5.6h-.3a3.5 3.5 0 0 1 .3-7zm-6.7-27 3.9 2.2v23.8a5.3 5.3 0 0 0-2.5 4.2l-4.6 2.7-5.7 3.3-19.8 11.5 4 2.3 1.7 1 26.9-15.6v8.1l-20 11.5-.7.5a5.3 5.3 0 0 0-4.9 0l-4.6-2.7-5.7-3.3-19.8-11.5v6.6l26.9 15.6-3.2 1.8-3.9 2.2L189 672l-.8-.4c-.2-1.7-1.1-3.1-2.4-4v-35l-4.1 2.3-1.6 1v31l-3.3-1.8-3.8-2.3v-23.5c1.5-1 2.5-2.6 2.5-4.5l4.6-2.7 5.7-3.3 19.8-11.5-5.7-3.2-26.9 15.5v-8.1l19.9-11.5.8-.4a5.3 5.3 0 0 0 4.8 0l4.6 2.6 5.7 3.3 20 11.5v-6.6l-27-15.6 3.2-1.8 3.8-2.2 20 11.5.7.4c.2 1.7 1 3.1 2.4 4v35l4.1-2.3 1.6-1v-31l3.2 1.9z"/>
  </g>
</svg>
