<svg width="32" height="32" viewBox="0 0 32 32" focusable="false" aria-hidden="true">
<path d="M 30.460938 19.730469 L 27.800781 18.195312 C 28.070312 16.742188 28.070312 15.257812 27.800781 13.804688 L 30.460938 12.269531 C 30.769531 12.09375 30.90625 11.730469 30.804688 11.394531 C 30.113281 9.167969 28.929688 7.15625 27.386719 5.480469 C 27.148438 5.226562 26.761719 5.164062 26.460938 5.335938 L 23.800781 6.875 C 22.679688 5.914062 21.394531 5.167969 20 4.679688 L 20 1.613281 C 20 1.261719 19.757812 0.957031 19.414062 0.882812 C 17.117188 0.367188 14.769531 0.394531 12.585938 0.882812 C 12.242188 0.957031 12 1.261719 12 1.613281 L 12 4.6875 C 10.613281 5.179688 9.324219 5.925781 8.199219 6.882812 L 5.542969 5.34375 C 5.238281 5.167969 4.855469 5.226562 4.617188 5.488281 C 3.074219 7.15625 1.894531 9.167969 1.199219 11.398438 C 1.09375 11.738281 1.238281 12.101562 1.542969 12.273438 L 4.207031 13.8125 C 3.9375 15.261719 3.9375 16.75 4.207031 18.199219 L 1.542969 19.738281 C 1.238281 19.914062 1.101562 20.273438 1.199219 20.613281 C 1.894531 22.835938 3.074219 24.851562 4.617188 26.523438 C 4.855469 26.78125 5.242188 26.84375 5.542969 26.667969 L 8.207031 25.132812 C 9.324219 26.09375 10.613281 26.835938 12.007812 27.324219 L 12.007812 30.398438 C 12.007812 30.75 12.25 31.054688 12.59375 31.132812 C 14.886719 31.644531 17.238281 31.617188 19.417969 31.132812 C 19.761719 31.054688 20.007812 30.75 20.007812 30.398438 L 20.007812 27.324219 C 21.394531 26.832031 22.679688 26.085938 23.804688 25.132812 L 26.46875 26.667969 C 26.773438 26.84375 27.15625 26.789062 27.394531 26.523438 C 28.9375 24.855469 30.117188 22.84375 30.8125 20.613281 C 30.90625 20.269531 30.769531 19.90625 30.460938 19.730469 Z M 16 21 C 13.242188 21 11 18.757812 11 16 C 11 13.242188 13.242188 11 16 11 C 18.757812 11 21 13.242188 21 16 C 21 18.757812 18.757812 21 16 21 Z M 16 21 "/>
</svg>
