<svg focusable="false" aria-hidden="true" xmlns="http://www.w3.org/2000/svg" width="28" height="28">
  <path d="M19.999 10.001v-3A2 2 0 0 0 18 5H6a2 2 0 0 0-1.999 2v3m15.998 0v9A1.998 1.998 0 0 1 18 21H6a1.998 1.998 0 0 1-1.999-1.999v-9m15.998 0H4M8 3v4.001M16 3v4.001" stroke="currentColor" style="fill:none;stroke-width:2;stroke-linecap:round;stroke-linejoin:miter;stroke-opacity:1;stroke-miterlimit:4" transform="scale(1.16667)"/>
  <path d="M7.582 14h2.336c.32 0 .582.262.582.582v2.336c0 .32-.262.582-.582.582H7.582A.583.583 0 0 1 7 16.918v-2.336c0-.32.262-.582.582-.582Zm5.25 0h2.336c.32 0 .582.262.582.582v2.336c0 .32-.262.582-.582.582h-2.336a.583.583 0 0 1-.582-.582v-2.336c0-.32.262-.582.582-.582Zm5.25 0h2.336c.32 0 .582.262.582.582v2.336c0 .32-.262.582-.582.582h-2.336a.583.583 0 0 1-.582-.582v-2.336c0-.32.262-.582.582-.582Zm0 0" fill="currentColor" style="stroke:none;fill-rule:nonzero;"/>
</svg>