<svg aria-hidden="true" focusable="false" xmlns="http://www.w3.org/2000/svg" width="88" height="96">
  <path d="M0 34.695V.004h88v95.992H0v-61.3m84.152 28.41c0-1.11.012-2.22-.004-3.329-.003-.277.086-.445.309-.613 2.676-2 2.707-5.977.055-8-.278-.21-.367-.414-.367-.754.011-8.262.007-16.523.007-24.789v-.476c-.152-.094-.27-.168-.386-.235-2.965-1.707-5.926-3.414-8.895-5.105-.371-.211-.637-.422-.562-.88.004-.042-.008-.085-.012-.124-.442-3.254-3.86-5.25-6.91-3.985-.528.22-.887.18-1.36-.093-7.035-4.067-14.082-8.118-21.125-12.176-.242-.14-.425-.168-.68-.012-.878.527-1.777 1.031-2.667 1.543-2.18 1.254-4.364 2.504-6.54 3.766-.199.113-.35.133-.57.031-.867-.398-1.785-.5-2.73-.387-2.184.254-4.098 2.16-4.317 4.336-.03.317-.14.485-.41.64-7.218 4.141-14.433 8.298-21.652 12.438-.29.164-.395.34-.395.68.012 3.535.004 7.07.016 10.605 0 .336-.086.543-.363.758-2.621 1.996-2.625 5.957-.012 7.95.266.207.379.402.375.75-.012 8.19-.004 16.386-.016 24.578 0 .355.114.539.418.71 2.403 1.364 4.797 2.747 7.196 4.126.734.421 1.465.847 2.199 1.27.082 1.91.887 3.41 2.543 4.374 1.676.973 3.394.895 5.094.016 7.39 4.254 14.773 8.5 22.148 12.742.121-.063.223-.113.316-.168.844-.484 1.688-.965 2.532-1.453 2.226-1.281 4.457-2.559 6.68-3.848.214-.125.386-.144.613-.035.68.313 1.402.426 2.152.414 2.457-.027 4.621-1.96 4.875-4.394.031-.293.14-.465.398-.61 6.555-3.765 13.106-7.535 19.657-11.305.797-.457 1.59-.914 2.39-1.374v-7.583Zm0 0" style="stroke:none;fill-rule:nonzero;fill:none;fill-opacity:1"/>
  <path class="colour" d="M84.152 63.148v7.54c-.8.46-1.593.917-2.39 1.374-6.551 3.77-13.102 7.54-19.657 11.305-.257.145-.367.317-.398.61-.254 2.433-2.418 4.367-4.875 4.394-.75.012-1.473-.101-2.152-.414-.227-.11-.399-.09-.614.035-2.222 1.29-4.453 2.567-6.68 3.848-.843.488-1.687.969-2.53 1.453-.094.055-.196.105-.317.168-7.375-4.242-14.758-8.488-22.148-12.742-1.7.879-3.418.957-5.094-.016-1.656-.965-2.461-2.465-2.543-4.375-.734-.422-1.465-.848-2.2-1.27-2.398-1.378-4.792-2.761-7.195-4.124-.304-.172-.418-.356-.418-.711.012-8.192.004-16.387.016-24.578.004-.348-.11-.543-.375-.75-2.613-1.993-2.61-5.954.012-7.95.277-.215.363-.422.363-.758-.012-3.535-.004-7.07-.016-10.605 0-.34.106-.516.395-.68 7.219-4.14 14.434-8.297 21.652-12.437.27-.156.38-.324.41-.64.22-2.177 2.133-4.083 4.317-4.337.945-.113 1.863-.011 2.73.387.22.102.371.082.57-.031 2.176-1.262 4.36-2.512 6.54-3.766.89-.512 1.789-1.016 2.668-1.543.254-.156.437-.129.68.012 7.042 4.058 14.09 8.11 21.124 12.176.473.273.832.312 1.36.093 3.05-1.265 6.468.73 6.91 3.985.004.039.016.082.012.125-.075.457.191.668.562.879 2.969 1.691 5.93 3.398 8.895 5.105.117.067.234.14.386.235v.476c0 8.266.004 16.527-.007 24.79 0 .339.09.542.367.753 2.652 2.023 2.62 6-.055 8-.223.168-.312.336-.309.613.016 1.11.004 2.22.004 3.371M23.988 73.484c.41.59.707 1.235.805 1.946.047.343.203.523.492.691 5.582 3.2 11.156 6.41 16.735 9.617.843.485 1.683.969 2.535 1.457l6.695-3.851c-8.586-4.942-17.11-9.844-25.613-14.735-.086-.988-.047-5.91.058-6.238l28.672 16.496a5.27 5.27 0 0 1 2.36-.566c.824 0 1.59.219 2.308.554.05-.023.078-.035.102-.05 6.418-3.692 12.84-7.387 19.261-11.07.227-.13.297-.278.297-.528-.007-2.316-.004-4.629-.004-6.945 0-.11-.015-.215-.023-.383-.168.09-.3.156-.426.23-1.3.75-2.601 1.5-3.902 2.246-6.973 4.012-13.95 8.02-20.918 12.043-.281.16-.477.165-.754 0-1.555-.914-3.129-1.808-4.691-2.707-.106-.062-.204-.132-.34-.222.136-.09.234-.16.34-.219 6.168-3.547 12.332-7.094 18.5-10.64 3.191-1.837 6.382-3.676 9.578-5.508.18-.106.324-.196.347-.457.133-1.442.797-2.61 1.95-3.489.265-.203.347-.41.343-.726-.007-2.867-.004-5.739-.004-8.61 0-4.379 0-8.761.004-13.144 0-.242-.015-.43-.277-.578-2.055-1.164-4.098-2.352-6.148-3.528-.079-.043-.168-.062-.293-.11v29.481c-1.801 1.036-3.579 2.059-5.43 3.121v-.57c0-10.746 0-21.492.008-32.238 0-.36-.078-.594-.387-.828-1.004-.754-1.637-1.774-1.848-3.012-.062-.363-.218-.547-.52-.719-3.218-1.843-6.433-3.695-9.648-5.547-3.093-1.78-6.191-3.558-9.285-5.343-.187-.106-.332-.184-.566-.043-2.063 1.203-4.14 2.386-6.211 3.582-.063.035-.113.094-.188.156.176.105.32.191.465.273 4.758 2.739 9.516 5.473 14.274 8.211 3.504 2.016 7.007 4.032 10.515 6.047.215.125.36.239.36.532-.016 1.87-.008 3.746-.012 5.617 0 .086-.027.172-.047.285-.133-.07-.23-.121-.328-.18l-11.742-6.75a16244.87 16244.87 0 0 1-16.328-9.402c-.23-.133-.403-.14-.653-.035-1.343.574-2.703.57-4.047-.02a.56.56 0 0 0-.574.035c-.836.496-1.683.973-2.527 1.457a13549.34 13549.34 0 0 1-16.516 9.496c-.222.13-.34.258-.336.543.016 2.332.008 4.66.008 6.989 0 .105.02.207.031.355 8.57-4.93 17.094-9.832 25.614-14.738a3283.63 3283.63 0 0 0 5.445 3.137c-.262.152-.453.265-.645.375-9.238 5.312-18.472 10.628-27.714 15.937-.286.16-.41.344-.434.672-.121 1.523-.824 2.742-2.05 3.648-.196.145-.25.297-.25.52.003 7.238.003 14.476 0 21.715 0 .254.085.394.304.52 2.015 1.148 4.023 2.308 6.035 3.464.105.059.215.102.36.172V41.891l5.44-3.125v32.726c0 .125.012.25 0 .375-.019.172.055.278.196.375.477.32.875.727 1.242 1.242m-4.082 6.211c.207-.027.414-.039.617-.082 1.465-.304 2.715-1.61 2.653-3.367-.067-1.992-1.797-3.441-3.778-3.195-1.636.199-3.003 1.62-2.91 3.433.094 1.848 1.477 3.137 3.418 3.211M5.598 38.313c-1.035.89-1.477 2.003-1.172 3.343.3 1.317 1.156 2.172 2.46 2.5 1.333.328 2.497-.066 3.368-1.117.871-1.055 1.035-2.258.46-3.504-.913-1.996-3.398-2.539-5.116-1.222m64.12-22.153a9.073 9.073 0 0 0-.288-.02c-1.961-.105-3.598 1.555-3.489 3.462.079 1.375.758 2.367 2 2.914 1.27.558 2.496.363 3.54-.551 1.007-.887 1.378-2.035 1.023-3.344-.375-1.371-1.32-2.168-2.785-2.46M59.313 85.425c.613-.77.851-1.649.695-2.61-.29-1.77-1.95-3.125-3.953-2.742-1.89.364-3.051 2.211-2.606 4.074.399 1.653 2.09 2.766 3.77 2.485.832-.137 1.508-.528 2.093-1.207m-25.57-69.887a3.337 3.337 0 0 0 1.906-3.875c-.445-1.789-2.308-2.883-4.097-2.41-1.797.476-2.875 2.34-2.371 4.113.543 1.934 2.644 2.961 4.562 2.172m44.871 37.8c-.492.79-.675 1.641-.449 2.544.328 1.308 1.16 2.18 2.473 2.492 1.347.324 2.515-.074 3.39-1.152.848-1.051 1-2.25.43-3.473-1.129-2.398-4.355-2.602-5.844-.41Zm0 0" fill="currentColor"/>
  <path d="M23.969 73.46a4.709 4.709 0 0 0-1.223-1.218c-.14-.097-.215-.203-.195-.375.012-.125 0-.25 0-.375V38.766c-1.852 1.062-3.63 2.086-5.442 3.125v29.484c-.144-.07-.254-.113-.359-.172-2.012-1.156-4.02-2.316-6.035-3.465-.219-.125-.305-.265-.305-.52.004-7.238.004-14.476 0-21.714 0-.223.055-.375.25-.52 1.227-.906 1.93-2.125 2.05-3.648.024-.328.15-.512.435-.672 9.242-5.309 18.476-10.625 27.714-15.937.192-.11.383-.223.645-.375a3283.63 3283.63 0 0 1-5.445-3.137c-8.52 4.906-17.043 9.808-25.614 14.738-.011-.148-.03-.25-.03-.355 0-2.328.007-4.657-.009-6.989-.004-.285.114-.414.336-.543 5.508-3.16 11.012-6.328 16.516-9.496.844-.484 1.691-.96 2.527-1.457a.56.56 0 0 1 .574-.035c1.344.59 2.703.594 4.047.02.25-.106.422-.098.653.035 5.437 3.137 10.882 6.27 16.328 9.402l11.742 6.75c.098.059.195.11.328.18.02-.113.047-.2.047-.285.004-1.871-.004-3.746.012-5.617 0-.293-.145-.407-.36-.532-3.508-2.015-7.011-4.031-10.515-6.047-4.758-2.738-9.516-5.472-14.274-8.21a35.743 35.743 0 0 1-.465-.274c.075-.063.125-.121.188-.156 2.07-1.196 4.148-2.38 6.21-3.582.235-.14.38-.063.567.043 3.094 1.785 6.192 3.562 9.285 5.343 3.215 1.852 6.43 3.704 9.649 5.547.3.172.457.356.52.72.21 1.237.843 2.257 1.847 3.01.309.235.387.47.387.829-.008 10.746-.008 21.492-.008 32.238v.57c1.851-1.062 3.629-2.085 5.43-3.12V24.46c.125.047.214.066.293.11 2.05 1.175 4.093 2.363 6.148 3.527.262.148.277.336.277.578-.004 4.383-.004 8.765-.004 13.144 0 2.871-.004 5.742.004 8.61.004.316-.078.523-.343.726-1.153.88-1.817 2.047-1.95 3.489-.023.261-.168.351-.347.457-3.196 1.832-6.387 3.671-9.578 5.507l-18.5 10.641c-.106.059-.204.129-.34.219.136.09.234.16.34.222 1.562.899 3.136 1.793 4.691 2.707.277.165.473.16.754 0 6.969-4.023 13.945-8.03 20.918-12.043 1.3-.746 2.601-1.496 3.902-2.246.125-.074.258-.14.426-.23.008.168.023.273.023.383 0 2.316-.004 4.629.004 6.945 0 .25-.07.398-.297.527-6.421 3.684-12.843 7.38-19.261 11.07-.024.016-.051.028-.102.051-.719-.335-1.484-.554-2.308-.554a5.27 5.27 0 0 0-2.36.566L25.695 62.371c-.105.328-.144 5.25-.058 6.238C34.14 73.5 42.664 78.402 51.25 83.344l-6.695 3.851c-.852-.488-1.692-.972-2.535-1.457-5.579-3.207-11.153-6.418-16.735-9.617-.289-.168-.445-.348-.492-.691-.098-.711-.395-1.356-.824-1.97Zm0 0" style="stroke:none;fill-rule:nonzero;fill:none;fill-opacity:1"/>
  <path d="M19.867 79.695c-1.902-.074-3.285-1.363-3.379-3.21-.093-1.813 1.274-3.235 2.91-3.434 1.98-.246 3.711 1.203 3.778 3.195.062 1.758-1.188 3.063-2.653 3.367-.203.043-.41.055-.656.082ZM5.621 38.297c1.695-1.3 4.18-.758 5.094 1.238.574 1.246.41 2.45-.461 3.504-.871 1.05-2.035 1.445-3.367 1.117-1.305-.328-2.16-1.183-2.461-2.5-.305-1.34.136-2.453 1.195-3.36Zm0 0" style="stroke:none;fill-rule:nonzero;fill:none;fill-opacity:1"/>
  <path d="M69.758 16.164c1.426.29 2.37 1.086 2.746 2.457.355 1.309-.016 2.457-1.024 3.344-1.043.914-2.27 1.11-3.539.55-1.242-.546-1.921-1.538-2-2.913-.109-1.907 1.528-3.567 3.489-3.461.097.004.191.011.328.023Zm0 0" fill="none" style="stroke:none;fill-rule:nonzero;fill-opacity:1"/>
  <path d="M59.293 85.45c-.566.655-1.242 1.046-2.074 1.183-1.68.281-3.371-.832-3.77-2.485-.445-1.863.715-3.71 2.606-4.074 2.004-.383 3.664.973 3.953 2.742.156.961-.082 1.84-.715 2.633ZM33.71 15.55a3.355 3.355 0 0 1-4.53-2.183c-.504-1.773.574-3.637 2.37-4.113 1.79-.473 3.653.621 4.098 2.41.407 1.629-.441 3.23-1.937 3.887Zm44.923 37.763c1.469-2.165 4.695-1.961 5.824.437.57 1.223.418 2.422-.43 3.473-.875 1.078-2.043 1.476-3.39 1.152-1.313-.313-2.145-1.184-2.473-2.492-.227-.903-.043-1.754.469-2.57Zm0 0" style="stroke:none;fill-rule:nonzero;fill:none;fill-opacity:1"/>
</svg>