<svg id="cWarn" aria-hidden="true" focusable="false" xmlns="http://www.w3.org/2000/svg" viewBox="0 0 36 36" height="36" width="36">
  <path fill="#currentColor" d="M18 0C8.059 0 0 8.059 0 18s8.059 18 18 18 18-8.059 18-18S27.941 0 18 0Zm0 29.488c-1.406 0-2.371-1.082-2.371-2.488 0-1.445 1.004-2.488 2.371-2.488 1.445 0 2.371 1.043 2.371 2.488 0 1.406-.926 2.488-2.371 2.488Zm.934-9.508c-.36 1.223-1.489 1.247-1.864 0-.433-1.433-1.976-6.875-1.976-10.41 0-4.668 5.836-4.687 5.836 0 0 3.555-1.625 9.14-1.996 10.41Zm0 0"/>
</svg>